<svg width="189" height="169" viewBox="0 0 189 169" fill="none" xmlns="http://www.w3.org/2000/svg">
<g filter="url(#filter0_dd_1417_152912)">
<path d="M161.984 87.2377L88.147 130.889C84.2094 133.213 78.366 132.853 74.99 130.869C73.3746 129.919 72.3271 128.603 72.3208 127.031L72.1946 104.705H34.3076C31.6384 104.705 29.3982 104.088 27.7828 103.145C24.4068 101.161 23.7757 97.7204 27.7071 95.3902L101.544 51.7456C105.589 49.3576 112.164 49.3576 116.234 51.7456L161.933 78.5845C166.003 80.9725 166.022 84.8497 161.984 87.2377Z" fill="#611F69"/>
<path d="M161.984 64.7895L88.1469 108.441C84.2092 110.764 78.3659 110.405 74.9899 108.421C73.3745 107.471 72.327 106.155 72.3207 104.583L72.1944 82.2564H34.3075C31.6382 82.2564 29.3981 81.6401 27.7827 80.6965C24.4067 78.7129 23.7756 75.2722 27.7069 72.942L101.544 29.291C105.588 26.903 112.164 26.903 116.234 29.291L161.933 56.1299C166.003 58.5179 166.022 62.3951 161.984 64.7831V64.7895Z" fill="#F9EDFF"/>
<path d="M164.994 60.5464C164.962 62.0806 163.965 63.6148 161.984 64.7895L88.147 108.441C84.2094 110.764 78.3661 110.405 74.9901 108.421C73.3747 107.471 72.3271 106.155 72.3208 104.583L72.1946 82.2564H34.3077C31.6384 82.2564 29.3983 81.6401 27.7828 80.6965C26.2684 79.8106 25.3155 78.6295 25.0694 77.3841L25 77.397V98.6319L25.0505 98.6062C25.2524 99.8965 26.2179 101.135 27.7828 102.053C29.3983 103.003 31.6384 103.613 34.3077 103.613H72.1946L72.3208 125.939C72.3271 127.512 73.381 128.828 74.9901 129.778C78.3661 131.762 84.2094 132.121 88.147 129.797L161.984 86.1464C163.814 85.0616 164.804 83.675 164.968 82.2564H165V60.5464H164.994Z" fill="#83388A"/>
<path d="M72.2703 95.6276L72.1946 82.2563H34.3077C31.6384 82.2563 29.3983 81.64 27.7828 80.6964C26.2684 79.8105 25.3155 78.6294 25.0694 77.384L25 77.3969V98.6318L25.0505 98.6061C25.2524 99.8964 26.2179 101.135 27.7828 102.053C29.3983 103.003 31.6384 103.613 34.3077 103.613H72.1946L72.2703 95.6276Z" fill="#A350AF"/>
</g>
<defs>
<filter id="filter0_dd_1417_152912" x="0.998169" y="15.5" width="188.002" height="153" filterUnits="userSpaceOnUse" color-interpolation-filters="sRGB">
<feFlood flood-opacity="0" result="BackgroundImageFix"/>
<feColorMatrix in="SourceAlpha" type="matrix" values="0 0 0 0 0 0 0 0 0 0 0 0 0 0 0 0 0 0 127 0" result="hardAlpha"/>
<feOffset dy="12"/>
<feGaussianBlur stdDeviation="12"/>
<feComposite in2="hardAlpha" operator="out"/>
<feColorMatrix type="matrix" values="0 0 0 0 0.635294 0 0 0 0 0.313726 0 0 0 0 0.686275 0 0 0 0.2 0"/>
<feBlend mode="normal" in2="BackgroundImageFix" result="effect1_dropShadow_1417_152912"/>
<feColorMatrix in="SourceAlpha" type="matrix" values="0 0 0 0 0 0 0 0 0 0 0 0 0 0 0 0 0 0 127 0" result="hardAlpha"/>
<feOffset dy="2"/>
<feGaussianBlur stdDeviation="2"/>
<feComposite in2="hardAlpha" operator="out"/>
<feColorMatrix type="matrix" values="0 0 0 0 0.635294 0 0 0 0 0.313726 0 0 0 0 0.686275 0 0 0 0.25 0"/>
<feBlend mode="normal" in2="effect1_dropShadow_1417_152912" result="effect2_dropShadow_1417_152912"/>
<feBlend mode="normal" in="SourceGraphic" in2="effect2_dropShadow_1417_152912" result="shape"/>
</filter>
</defs>
</svg>
